HIERARCHY
ROOT Hips
{
    OFFSET 0.0 0.0 0.0
    CHANNELS 6 Xposition Yposition Zposition Zrotation Xrotation Yrotation
    JOINT LeftHipJoint
    {
        OFFSET 0.1 0.0 0.0
        CHANNELS 3 Zrotation Xrotation Yrotation
        JOINT LeftUpLeg
        {
            OFFSET 122.93047818417847 0.0 0.0
            CHANNELS 3 Zrotation Xrotation Yrotation
            JOINT LeftLeg
            {
                OFFSET 0.0 0.0 -413.7225205487598
                CHANNELS 3 Zrotation Xrotation Yrotation
                JOINT LeftFoot
                {
                    OFFSET 0.0 0.0 -398.5038452834899
                    CHANNELS 3 Zrotation Xrotation Yrotation
                    End Site
                    {
                        OFFSET 0.0 -0.1 0.0
                    }
                }
            }
        }
    }
    JOINT LowerBack
    {
        OFFSET 0.0 0.0 0.1
        CHANNELS 3 Zrotation Xrotation Yrotation
        JOINT Spine
        {
            OFFSET 0.0 0.0 220.39991530127293
            CHANNELS 3 Zrotation Xrotation Yrotation
            JOINT Spine1
            {
                OFFSET 0.0 0.0 252.7906309312396
                CHANNELS 3 Zrotation Xrotation Yrotation
                JOINT LeftShoulder
                {
                    OFFSET 0.1 0.0 0.0
                    CHANNELS 3 Zrotation Xrotation Yrotation
                    JOINT LeftArm
                    {
                        OFFSET 143.0097579980065 0.0 0.0
                        CHANNELS 3 Zrotation Xrotation Yrotation
                        JOINT LeftForeArm
                        {
                            OFFSET 261.470586858992 0.0 0.0
                            CHANNELS 3 Zrotation Xrotation Yrotation
                            JOINT LeftHand
                            {
                                OFFSET 241.48004058815556 0.0 0.0
                                CHANNELS 3 Zrotation Xrotation Yrotation
                                End Site
                                {
                                    OFFSET 0.1 0.0 0.0
                                }
                            }
                        }
                    }
                }
                JOINT Neck
                {
                    OFFSET 0.0 0.0 0.1
                    CHANNELS 3 Zrotation Xrotation Yrotation
                    JOINT Neck1
                    {
                        OFFSET 0.0 0.0 106.4242075267526
                        CHANNELS 3 Zrotation Xrotation Yrotation
                        End Site
                        {
                            OFFSET 0.0 0.0 114.36605568781621
                        }
                    }
                }
                JOINT RightShoulder
                {
                    OFFSET -0.1 0.0 0.0
                    CHANNELS 3 Zrotation Xrotation Yrotation
                    JOINT RightArm
                    {
                        OFFSET -143.0097579980065 0.0 0.0
                        CHANNELS 3 Zrotation Xrotation Yrotation
                        JOINT RightForeArm
                        {
                            OFFSET -261.470586858992 0.0 0.0
                            CHANNELS 3 Zrotation Xrotation Yrotation
                            JOINT RightHand
                            {
                                OFFSET -241.48004058815556 0.0 0.0
                                CHANNELS 3 Zrotation Xrotation Yrotation
                                End Site
                                {
                                    OFFSET -0.1 0.0 0.0
                                }
                            }
                        }
                    }
                }
            }
        }
    }
    JOINT RightHipJoint
    {
        OFFSET -0.1 0.0 0.0
        CHANNELS 3 Zrotation Xrotation Yrotation
        JOINT RightUpLeg
        {
            OFFSET -122.93047818417847 0.0 0.0
            CHANNELS 3 Zrotation Xrotation Yrotation
            JOINT RightLeg
            {
                OFFSET 0.0 0.0 -413.7225205487598
                CHANNELS 3 Zrotation Xrotation Yrotation
                JOINT RightFoot
                {
                    OFFSET 0.0 0.0 -398.5038452834899
                    CHANNELS 3 Zrotation Xrotation Yrotation
                    End Site
                    {
                        OFFSET 0.0 -0.1 0.0
                    }
                }
            }
        }
    }
}
MOTION
Frames: 9
Frame Time: 0.03333333333333333
0.0 0.0 819.923638070483 28.161014101485172 -0.7671073717776087 3.47299740497731 0.0 0.0 0.0 -0.0552102354882458 -10.857493887713495 3.7020636811126963 1.4582132982027076 20.00184912810031 -3.0007336254567747 0.0 0.0 -1.987846675914698e-16 0.0 0.0 0.0 0.014556489646168179 2.843312600906345 -2.9845815592270353 2.6530532868791465 3.073008948307776e-16 3.9055993198262547e-16 0.0 0.0 -9.93923337957349e-17 -31.599723064465568 13.256037097729974 81.29690718393864 -19.183167267969793 -2.3132973581153667e-15 4.145151419253701e-15 0.0 0.0 -1.9567865716035308e-15 0.0 0.0 -9.93923337957349e-17 -3.039399946537507 -2.029276729573623 3.3632896410591218 0.0 0.0 -9.93923337957349e-17 13.863684844314566 6.360004465280599 -72.16403506534937 30.140727719059594 -7.205968599039805e-15 -1.4528872863230622e-14 0.0 0.0 2.3854160110976376e-15 0.0 0.0 0.0 -0.045736868179067316 -8.688256313978584 0.9455464891141921 0.45671677338806094 20.1650859876798 0.30166813301907625 0.0 0.0 -3.975693351829396e-16
0.0 0.0 819.923638070483 28.224495147567936 -0.6034669665599874 3.6013632827343613 0.0 0.0 4.969616689786745e-17 -0.06994415760694525 -11.055166574209496 3.656292154186195 1.4741858766043803 20.083271513365563 -3.0850197161923623 0.0 0.0 -5.963540027744094e-16 0.0 0.0 4.969616689786745e-17 0.01764316023556532 2.7807580753941825 -3.041229658834883 2.684208665108965 5.2010500609043867e-17 9.820108374198387e-17 0.0 0.0 0.0 -30.437955075361018 13.133332925640955 81.05694140104323 -19.154236084891362 -3.0934625836666524e-16 -5.561808780841165e-16 0.0 0.0 -1.9381505090168305e-15 0.0 0.0 0.0 -3.3048009849786597 -2.3387695044010184 3.3223498064531953 0.0 0.0 0.0 13.883262923334568 6.181826127235375 -71.67017224828938 30.135138369205748 0.0 0.0 0.0 0.0 -1.5902773407317584e-15 0.0 0.0 4.969616689786745e-17 -0.057498109803772735 -8.845491968607977 0.9170178619903168 0.47422548918898244 20.23802063520271 0.2303381612107279 0.0 0.0 0.0
0.0 0.0 819.923638070483 28.376479656442218 -0.4213723633893722 3.79560159403328 0.0 0.0 -2.4848083448933725e-16 -0.08951796405537384 -11.372067368503926 3.5300205861222596 1.4791480666046133 20.31788691119747 -3.1429222245097956 0.0 0.0 0.0 0.0 0.0 -2.4848083448933725e-16 0.021081801198135762 2.6801489952659105 -3.168907695360005 2.755445769558016 -3.8789545162303505e-16 4.070133550213936e-16 0.0 0.0 9.93923337957349e-17 -29.032758434110814 13.148589031031236 80.85846982568236 -19.056648332236055 -5.478300594806184e-15 3.817251568773593e-15 1.0301988332363164e-32 3.975693351829396e-16 -2.9693459721475803e-15 0.0 0.0 9.93923337957349e-17 -3.6161465703626914 -2.5850039143621846 3.2787321141587067 0.0 0.0 9.93923337957349e-17 13.568547828205363 6.177771498000789 -71.32229524716819 30.126294709267135 -2.244697219095094e-15 3.897844347603653e-15 0.0 0.0 -3.1805546814635168e-15 0.0 0.0 -2.4848083448933725e-16 -0.07270526689681553 -9.046533844824623 0.819773744073203 0.4757779823106628 20.42731489766167 0.08944399328259316 0.0 -1.987846675914698e-16 0.0
0.0 0.0 819.923638070483 28.50695609920966 -0.332010916533102 4.001522445510149 0.0 0.0 0.0 -0.115761366158286 -11.536001138932855 3.4042904690245606 1.4847234334601978 20.393881698684876 -3.2383145447992367 0.0 0.0 -3.975693351829396e-16 0.0 0.0 0.0 0.026352134311401192 2.6372061121278074 -3.2590104496044825 2.923935929906859 -1.1999272608220367e-15 -2.676499194706217e-16 0.0 0.0 9.93923337957349e-17 -27.5430834801758 12.957370715196411 80.53929351912721 -19.0067422946061 -1.193615672219808e-15 1.1102650655144674e-15 0.0 0.0 2.6338968455869747e-15 0.0 0.0 9.93923337957349e-17 -3.967496471147568 -2.6747138130975596 3.227512251116893 0.0 0.0 9.93923337957349e-17 13.1485576523223 5.816707895723709 -70.90233607104904 29.860796765190376 1.1677899409331729e-14 6.7611663829224465e-15 0.0 0.0 -7.951386703658792e-16 0.0 0.0 0.0 -0.09341097023174551 -9.180160148967264 0.7567114907336816 0.5060214499638571 20.716803727300686 -0.0350044727266394 0.0 0.0 0.0
0.0 0.0 819.923638070483 28.588203281817247 -0.5293162757234343 4.2190030350543575 -1.7241821476758432e-34 1.987846675914698e-16 9.93923337957349e-17 -0.14822683261635494 -11.34692507030121 3.2902237298223542 1.5141443704851991 20.475447089897497 -3.271684317214805 0.0 0.0 -3.975693351829396e-16 -1.7241821476758432e-34 1.987846675914698e-16 9.93923337957349e-17 0.03290357669872898 2.5312496824644244 -3.428311732325385 3.0151379138993546 2.510097383936738e-16 9.282064618079128e-17 0.0 0.0 0.0 -26.393057676828597 12.993755431596862 80.45223130317018 -18.746165524462132 -6.370698015132355e-15 2.0896551595265816e-14 1.987846675914698e-16 7.651058280311554e-34 4.410534812185736e-16 0.0 0.0 0.0 -4.091598699723788 -2.612640201195346 3.157532752711972 0.0 0.0 0.0 13.238498245150067 6.054881704578654 -70.54839998922031 29.533942606872948 6.961691420720621e-15 1.4541296268085637e-15 0.0 0.0 7.951386703658792e-16 -1.7241821476758432e-34 1.987846675914698e-16 9.93923337957349e-17 -0.11967479169408579 -9.053759612671243 0.6140714086763369 0.5307531478387036 21.184390184174323 -0.0536172809788889 0.0 0.0 3.975693351829396e-16
0.0 0.0 819.923638070483 28.62456280446295 -0.44983189633749177 4.41762537210766 0.0 0.0 -2.4848083448933725e-16 -0.17563620543989403 -11.528707077543167 3.1716839444623033 1.5321200089308136 20.664251677461255 -3.3479383707375407 2.758691436281349e-33 -7.951386703658792e-16 3.975693351829396e-16 0.0 0.0 -2.4848083448933725e-16 0.03670553742630419 2.424021661068432 -3.4837755167695055 2.9513099372273452 -3.554365096784766e-16 -2.891196170385908e-16 0.0 0.0 9.93923337957349e-17 -25.02976787727468 12.598771966291386 80.14085649967448 -18.570269671492504 1.2686789686214991e-14 -2.8318801344784553e-14 0.0 0.0 2.0499668845370324e-15 0.0 0.0 9.93923337957349e-17 -4.2407822728829965 -2.634817347719993 2.980371812657941 0.0 0.0 9.93923337957349e-17 13.007586347885312 6.101838401316216 -70.07229941490739 29.574688902654565 1.4516541070732001e-15 -6.962208037850849e-15 0.0 0.0 -7.951386703658794e-16 0.0 0.0 -2.4848083448933725e-16 -0.14323194325460573 -9.304906654853347 0.5342350238793481 0.5627367398742985 21.692626804512333 -0.18445392309474162 0.0 0.0 3.975693351829396e-16
0.0 0.0 819.923638070483 28.549665873931907 -0.6314885053707165 4.698795196223448 0.0 0.0 3.4787316828507215e-16 -0.22687363941041738 -11.399304306621072 2.88392331593358 1.5330080550041245 20.75942987850378 -3.3066993590815428 -2.758691436281349e-33 -7.951386703658792e-16 -3.975693351829396e-16 0.0 0.0 3.4787316828507215e-16 0.04514083742594395 2.2833821833949846 -3.63433273768058 2.7829000066905634 -4.0027337811123794e-17 3.986588736123898e-16 0.0 0.0 -4.969616689786745e-17 -23.849247634868128 12.717600884488904 80.02107413422993 -18.410689878933173 -1.2122550021603123e-16 -1.4163314150804092e-14 -7.454425034680117e-16 3.4591404337746604e-32 -5.317489858071817e-15 0.0 0.0 -4.969616689786745e-17 -4.339658868881881 -2.618352718161869 2.7655272341278048 0.0 0.0 -4.969616689786745e-17 11.952225146901256 6.56278098461972 -69.59140016237902 30.158305472525974 -8.274314810664381e-16 -3.0710397629987947e-15 -6.361109362927033e-15 8.827812596100317e-32 -1.5902773407317582e-15 0.0 0.0 3.4787316828507215e-16 -0.18458844240433547 -9.195309201216816 0.2839295699680691 0.5783802878113268 21.987185418444227 -0.23238269114995874 0.0 0.0 0.0
0.0 0.0 819.923638070483 28.43672768891397 -0.4471892835961865 5.056660118809833 0.0 -1.9878466759146977e-16 0.0 -0.2780911165200319 -11.690690354298487 2.466050568957424 1.477621654150165 20.999389862489764 -3.150510017994702 0.0 0.0 1.1927080055488186e-15 0.0 -1.9878466759146977e-16 0.0 0.05148133645857288 2.1832510642394776 -3.8554066403451217 2.731360923646925 -3.5132763364389334e-16 -1.4075516363509612e-16 0.0 0.0 0.0 -22.95836184176338 12.642130374656686 79.82303972896742 -18.33490336325918 2.6037758155284838e-15 -8.024190957870036e-15 -4.969616689786745e-16 7.597177588196684e-33 -1.7517898831498276e-15 0.0 0.0 0.0 -4.337860173810474 -2.8584543411198777 2.5989079424861754 0.0 0.0 0.0 10.827731829576658 6.6693506512898475 -69.04822085816002 30.80063822232395 -4.443441232576949e-15 7.82197255600344e-15 0.0 0.0 -3.1805546814635168e-15 0.0 -1.9878466759146977e-16 0.0 -0.23205510623863956 -9.697930553858903 -0.018869628702640733 0.5608397488915605 22.52008765477939 -0.2901510297639061 0.0 0.0 -3.975693351829396e-16
0.0 0.0 819.923638070483 28.130812683700743 -0.3223533895863371 5.368987026206751 0.0 0.0 2.4848083448933725e-16 -0.3316228074803018 -11.68059657523482 1.9882812862403698 1.386187044403046 20.868655825727313 -2.889360411432707 0.0 0.0 0.0 0.0 0.0 2.4848083448933725e-16 0.05870454391750621 2.0876337865482095 -3.9995396537207504 2.741666640636889 -3.891332853138173e-16 3.572847656301258e-16 -4.310455369189608e-35 9.93923337957349e-17 4.969616689786745e-17 -22.244502932832933 12.746787770578033 79.6302048199055 -18.229527194179862 -8.428945445512562e-16 6.508552359969726e-15 4.4397690302652963e-32 7.951386703658792e-16 -6.398381488100434e-15 -4.310455369189608e-35 9.93923337957349e-17 4.969616689786745e-17 -4.265003004025263 -2.94974123618249 2.398149294506704 -4.310455369189608e-35 9.93923337957349e-17 4.969616689786745e-17 9.210548346672658 6.565028816482989 -68.43426763199969 31.89590932895418 6.990183080523609e-15 1.3103361819239071e-15 0.0 0.0 3.1805546814635168e-15 0.0 0.0 2.4848083448933725e-16 -0.2838765135203521 -9.953001328732551 -0.3508693516408406 0.544606287543772 22.959343041130253 -0.34452285627566637 -1.3793457181406746e-33 3.975693351829396e-16 3.975693351829396e-16
